{
  "accessors": [
    {
      "bufferView": 2,
      "componentType": 5126,
      "count": 26675,
      "max": [
        1.3100999593734741,
        10.0,
        1.0898000001907349
      ],
      "min": [
        -1.0338000059127808,
        6.036099910736084,
        -1.3567999601364136
      ],
      "type": "VEC3"
    },
    {
      "bufferView": 2,
      "byteOffset": 320100,
      "componentType": 5126,
      "count": 26675,
      "max": [
        0.9999681711196899,
        0.9999070167541504,
        0.9999682903289795
      ],
      "min": [
        -0.9999465942382813,
        -0.9998407959938049,
        -0.999975323677063
      ],
      "type": "VEC3"
    },
    {
      "bufferView": 3,
      "componentType": 5126,
      "count": 26675,
      "max": [
        0.9999884366989136,
        0.9997950792312622,
        0.9999220967292786,
        1.0
      ],
      "min": [
        -0.999992311000824,
        -0.9995328783988953,
        -0.9999653697013855,
        -1.0
      ],
      "type": "VEC4"
    },
    {
      "bufferView": 1,
      "componentType": 5126,
      "count": 26675,
      "max": [
        0.9927999973297119,
        0.9916999936103821
      ],
      "min": [
        0.0,
        0.0
      ],
      "type": "VEC2"
    },
    {
      "bufferView": 1,
      "byteOffset": 213400,
      "componentType": 5126,
      "count": 26675,
      "max": [
        0.9927999973297119,
        0.9916999936103821
      ],
      "min": [
        0.0,
        0.0
      ],
      "type": "VEC2"
    },
    {
      "bufferView": 0,
      "componentType": 5125,
      "count": 132534,
      "type": "SCALAR"
    },
    {
      "bufferView": 2,
      "byteOffset": 640200,
      "componentType": 5126,
      "count": 12726,
      "max": [
        2.602400064468384,
        8.772000312805176,
        1.3911999464035034
      ],
      "min": [
        -3.112799882888794,
        -0.005499999970197678,
        -1.0166000127792358
      ],
      "type": "VEC3"
    },
    {
      "bufferView": 2,
      "byteOffset": 792912,
      "componentType": 5126,
      "count": 12726,
      "max": [
        0.9998108744621277,
        0.9997878670692444,
        0.9999116659164429
      ],
      "min": [
        -0.9999603033065796,
        -0.9999938011169434,
        -0.9999651908874512
      ],
      "type": "VEC3"
    },
    {
      "bufferView": 3,
      "byteOffset": 426800,
      "componentType": 5126,
      "count": 12726,
      "max": [
        0.9981452226638794,
        0.9999194145202637,
        0.9999799728393555,
        1.0
      ],
      "min": [
        -0.9999660849571228,
        -0.9999402761459351,
        -0.9999906420707703,
        -1.0
      ],
      "type": "VEC4"
    },
    {
      "bufferView": 1,
      "byteOffset": 426800,
      "componentType": 5126,
      "count": 12726,
      "max": [
        1.0,
        0.9873999953269958
      ],
      "min": [
        0.0,
        0.0
      ],
      "type": "VEC2"
    },
    {
      "bufferView": 1,
      "byteOffset": 528608,
      "componentType": 5126,
      "count": 12726,
      "max": [
        1.0,
        0.9873999953269958
      ],
      "min": [
        0.0,
        0.0
      ],
      "type": "VEC2"
    },
    {
      "bufferView": 1,
      "byteOffset": 630416,
      "componentType": 5126,
      "count": 12726,
      "max": [
        1.0,
        0.9873999953269958
      ],
      "min": [
        0.0,
        0.0
      ],
      "type": "VEC2"
    },
    {
      "bufferView": 0,
      "byteOffset": 530136,
      "componentType": 5125,
      "count": 59019,
      "type": "SCALAR"
    },
    {
      "bufferView": 2,
      "byteOffset": 945624,
      "componentType": 5126,
      "count": 1053,
      "max": [
        -0.056699998676776886,
        9.927900314331055,
        0.876800000667572
      ],
      "min": [
        -0.8955000042915344,
        8.130000114440918,
        -0.1736000031232834
      ],
      "type": "VEC3"
    },
    {
      "bufferView": 2,
      "byteOffset": 958260,
      "componentType": 5126,
      "count": 1053,
      "max": [
        0.9969388842582703,
        0.9997714161872864,
        0.9997541308403015
      ],
      "min": [
        -0.9986571669578552,
        -0.9961796998977661,
        -0.997378945350647
      ],
      "type": "VEC3"
    },
    {
      "bufferView": 3,
      "byteOffset": 630416,
      "componentType": 5126,
      "count": 1053,
      "max": [
        0.993030309677124,
        0.9124158024787903,
        0.9992111325263977,
        1.0
      ],
      "min": [
        -0.9944970011711121,
        -0.966604471206665,
        -0.9982491731643677,
        1.0
      ],
      "type": "VEC4"
    },
    {
      "bufferView": 1,
      "byteOffset": 732224,
      "componentType": 5126,
      "count": 1053,
      "max": [
        0.9951000213623047,
        1.0
      ],
      "min": [
        0.0,
        0.010200000368058681
      ],
      "type": "VEC2"
    },
    {
      "bufferView": 1,
      "byteOffset": 740648,
      "componentType": 5126,
      "count": 1053,
      "max": [
        0.9951000213623047,
        1.0
      ],
      "min": [
        0.0,
        0.010200000368058681
      ],
      "type": "VEC2"
    },
    {
      "bufferView": 1,
      "byteOffset": 749072,
      "componentType": 5126,
      "count": 1053,
      "max": [
        0.9951000213623047,
        1.0
      ],
      "min": [
        0.0,
        0.010200000368058681
      ],
      "type": "VEC2"
    },
    {
      "bufferView": 0,
      "byteOffset": 766212,
      "componentType": 5125,
      "count": 5430,
      "type": "SCALAR"
    }
  ],
  "asset": {
    "extras": {
      "author": "super7 (https://sketchfab.com/super7)",
      "license": "CC-BY-4.0 (http://creativecommons.org/licenses/by/4.0/)",
      "source": "https://sketchfab.com/3d-models/predator-s-3921d70ad5dd45d1861a1cdd9c49a228",
      "title": "Predator S"
    },
    "generator": "Sketchfab-12.66.0",
    "version": "2.0"
  },
  "bufferViews": [
    {
      "buffer": 0,
      "byteLength": 787932,
      "name": "floatBufferViews",
      "target": 34963
    },
    {
      "buffer": 0,
      "byteLength": 757496,
      "byteOffset": 787932,
      "byteStride": 8,
      "name": "floatBufferViews",
      "target": 34962
    },
    {
      "buffer": 0,
      "byteLength": 970896,
      "byteOffset": 1545428,
      "byteStride": 12,
      "name": "floatBufferViews",
      "target": 34962
    },
    {
      "buffer": 0,
      "byteLength": 647264,
      "byteOffset": 2516324,
      "byteStride": 16,
      "name": "floatBufferViews",
      "target": 34962
    }
  ],
  "buffers": [
    {
      "byteLength": 3163588,
      "uri": "scene.bin"
    }
  ],
  "images": [
    {
      "uri": "textures/cabeza_baseColor.jpeg"
    },
    {
      "uri": "textures/cabeza_normal.jpeg"
    },
    {
      "uri": "textures/cuerpo_baseColor.jpeg"
    },
    {
      "uri": "textures/cuerpo_emissive.png"
    },
    {
      "uri": "textures/cuerpo_normal.jpeg"
    },
    {
      "uri": "textures/casco_baseColor.jpeg"
    },
    {
      "uri": "textures/casco_emissive.png"
    },
    {
      "uri": "textures/casco_normal.jpeg"
    }
  ],
  "materials": [
    {
      "doubleSided": true,
      "name": "cabeza",
      "normalTexture": {
        "index": 1
      },
      "pbrMetallicRoughness": {
        "baseColorTexture": {
          "index": 0
        },
        "metallicFactor": 0.5,
        "roughnessFactor": 0.5
      }
    },
    {
      "doubleSided": true,
      "emissiveFactor": [
        1.0,
        1.0,
        1.0
      ],
      "emissiveTexture": {
        "index": 3
      },
      "name": "cuerpo",
      "normalTexture": {
        "index": 4
      },
      "pbrMetallicRoughness": {
        "baseColorTexture": {
          "index": 2
        },
        "metallicFactor": 0.5,
        "roughnessFactor": 0.5
      }
    },
    {
      "doubleSided": true,
      "emissiveFactor": [
        1.0,
        1.0,
        1.0
      ],
      "emissiveTexture": {
        "index": 6
      },
      "name": "casco",
      "normalTexture": {
        "index": 7
      },
      "pbrMetallicRoughness": {
        "baseColorTexture": {
          "index": 5
        },
        "metallicFactor": 0.5,
        "roughnessFactor": 0.5
      }
    }
  ],
  "meshes": [
    {
      "name": "Object_0",
      "primitives": [
        {
          "attributes": {
            "NORMAL": 1,
            "POSITION": 0,
            "TANGENT": 2,
            "TEXCOORD_0": 3,
            "TEXCOORD_1": 4
          },
          "indices": 5,
          "material": 0,
          "mode": 4
        }
      ]
    },
    {
      "name": "Object_1",
      "primitives": [
        {
          "attributes": {
            "NORMAL": 7,
            "POSITION": 6,
            "TANGENT": 8,
            "TEXCOORD_0": 9,
            "TEXCOORD_1": 10,
            "TEXCOORD_2": 11
          },
          "indices": 12,
          "material": 1,
          "mode": 4
        }
      ]
    },
    {
      "name": "Object_2",
      "primitives": [
        {
          "attributes": {
            "NORMAL": 14,
            "POSITION": 13,
            "TANGENT": 15,
            "TEXCOORD_0": 16,
            "TEXCOORD_1": 17,
            "TEXCOORD_2": 18
          },
          "indices": 19,
          "material": 2,
          "mode": 4
        }
      ]
    }
  ],
  "nodes": [
    {
      "children": [
        1
      ],
      "matrix": [
        1.0,
        0.0,
        0.0,
        0.0,
        0.0,
        2.220446049250313e-16,
        -1.0,
        0.0,
        0.0,
        1.0,
        2.220446049250313e-16,
        0.0,
        0.0,
        0.0,
        0.0,
        1.0
      ],
      "name": "Sketchfab_model"
    },
    {
      "children": [
        2
      ],
      "name": "root"
    },
    {
      "children": [
        3
      ],
      "matrix": [
        1.0,
        0.0,
        0.0,
        0.0,
        0.0,
        2.220446049250313e-16,
        1.0,
        0.0,
        0.0,
        -1.0,
        2.220446049250313e-16,
        0.0,
        0.0,
        0.0,
        0.0,
        1.0
      ],
      "name": "GLTF_SceneRootNode"
    },
    {
      "children": [
        4
      ],
      "matrix": [
        0.2199999988079071,
        0.0,
        0.0,
        0.0,
        0.0,
        0.2199999988079071,
        0.0,
        0.0,
        0.0,
        0.0,
        0.2199999988079071,
        0.0,
        0.0,
        0.0,
        0.0,
        1.0
      ],
      "name": "Predator_pose1-2.glb_4"
    },
    {
      "children": [
        5,
        7,
        9
      ],
      "name": "_3"
    },
    {
      "children": [
        6
      ],
      "name": "mesh0_0"
    },
    {
      "mesh": 0,
      "name": "Object_6"
    },
    {
      "children": [
        8
      ],
      "name": "mesh0_dat_polySurface13_1_1"
    },
    {
      "mesh": 1,
      "name": "Object_8"
    },
    {
      "children": [
        10
      ],
      "name": "mesh0_2"
    },
    {
      "mesh": 2,
      "name": "Object_10"
    }
  ],
  "samplers": [
    {
      "magFilter": 9729,
      "minFilter": 9987,
      "wrapS": 10497,
      "wrapT": 10497
    }
  ],
  "scene": 0,
  "scenes": [
    {
      "name": "Sketchfab_Scene",
      "nodes": [
        0
      ]
    }
  ],
  "textures": [
    {
      "sampler": 0,
      "source": 0
    },
    {
      "sampler": 0,
      "source": 1
    },
    {
      "sampler": 0,
      "source": 2
    },
    {
      "sampler": 0,
      "source": 3
    },
    {
      "sampler": 0,
      "source": 4
    },
    {
      "sampler": 0,
      "source": 5
    },
    {
      "sampler": 0,
      "source": 6
    },
    {
      "sampler": 0,
      "source": 7
    }
  ]
}
